<svg id="Layer_1" data-name="Layer 1" xmlns="http://www.w3.org/2000/svg" viewBox="0 0 353.11 141.97"><defs><style>.cls-1{fill:#4d555b;}.cls-2{fill:#76b043;}.cls-3{fill:#fff;}.cls-4{fill:none;stroke:#4e555c;stroke-miterlimit:10;}.cls-5{font-size:21.62px;fill:#4e555c;font-family:MyriadPro-Regular, Myriad Pro;}</style></defs><path class="cls-1" d="M455.79,276.74h-16v50H428.19v-50h-16V266.46h43.57Z" transform="translate(-412.22 -252.06)"/><path class="cls-1" d="M471.85,292.14a22.4,22.4,0,0,0-9.26,2,11.65,11.65,0,0,0-5.86,5.73v26.92H445.35v-44.5h10.44v9.51a20.49,20.49,0,0,1,2.81-4.12,21.21,21.21,0,0,1,3.48-3.18,15.73,15.73,0,0,1,3.78-2.08,10.43,10.43,0,0,1,3.69-.73H471a4.43,4.43,0,0,1,.9.09Z" transform="translate(-412.22 -252.06)"/><path class="cls-1" d="M489.59,304.54a24.12,24.12,0,0,1,1.62-8.83,21.41,21.41,0,0,1,4.67-7.31,22.88,22.88,0,0,1,7.39-5,24.48,24.48,0,0,1,9.76-1.87,23.4,23.4,0,0,1,12.45,3.15,20.06,20.06,0,0,1,7.68,8.24L522,296.3a10.07,10.07,0,0,0-3.83-3.78,10.74,10.74,0,0,0-5.26-1.31,10.89,10.89,0,0,0-4.59,1,11.38,11.38,0,0,0-3.69,2.72,12.59,12.59,0,0,0-2.47,4.21,15.94,15.94,0,0,0-.89,5.43,15.08,15.08,0,0,0,.94,5.44,13.59,13.59,0,0,0,2.5,4.24,11,11,0,0,0,3.7,2.76,10.48,10.48,0,0,0,4.5,1,10.92,10.92,0,0,0,5.65-1.53,8.64,8.64,0,0,0,3.61-3.73l11.12,3.39a18.76,18.76,0,0,1-7.56,8.33,23.76,23.76,0,0,1-12.65,3.22,24.53,24.53,0,0,1-9.77-1.86,22.14,22.14,0,0,1-12.1-12.45A23.63,23.63,0,0,1,489.59,304.54Z" transform="translate(-412.22 -252.06)"/><path class="cls-1" d="M610.36,292.14a22.36,22.36,0,0,0-9.25,2,11.65,11.65,0,0,0-5.86,5.73v26.92H583.87v-44.5h10.44v9.51a20.45,20.45,0,0,1,2.8-4.12,21.68,21.68,0,0,1,3.49-3.18,15.73,15.73,0,0,1,3.78-2.08,10.43,10.43,0,0,1,3.69-.73h1.4a4.26,4.26,0,0,1,.89.09Z" transform="translate(-412.22 -252.06)"/><path class="cls-1" d="M631.6,327.64a20.06,20.06,0,0,1-15.21-6.71,23.16,23.16,0,0,1-4.37-7.34,25.62,25.62,0,0,1-1.57-9,26.31,26.31,0,0,1,1.49-9,23.72,23.72,0,0,1,4.11-7.31,19.06,19.06,0,0,1,6.29-4.92,17.93,17.93,0,0,1,8-1.79,16.91,16.91,0,0,1,8.88,2.38,17.34,17.34,0,0,1,6.16,6.2V266.46h11.38v60.33h-9.68v-7.72a16.25,16.25,0,0,1-6.67,6.41A19,19,0,0,1,631.6,327.64Zm3-9.68a10.58,10.58,0,0,0,3.31-.55,11.9,11.9,0,0,0,3.15-1.57,13.9,13.9,0,0,0,2.59-2.38,10.16,10.16,0,0,0,1.74-3V299.87a12.76,12.76,0,0,0-1.91-3.44,14.46,14.46,0,0,0-2.81-2.72,14.71,14.71,0,0,0-3.31-1.82,9.28,9.28,0,0,0-3.44-.68,10.27,10.27,0,0,0-4.71,1.1,11.15,11.15,0,0,0-3.7,3,14.53,14.53,0,0,0-2.38,4.37,15.68,15.68,0,0,0-.85,5.1,14.15,14.15,0,0,0,.94,5.18,13.42,13.42,0,0,0,2.55,4.16,11.52,11.52,0,0,0,3.86,2.8A11.91,11.91,0,0,0,634.57,318Z" transform="translate(-412.22 -252.06)"/><path class="cls-1" d="M684,327.64a24.85,24.85,0,0,1-9.68-1.82,22.32,22.32,0,0,1-7.39-5,22,22,0,0,1-4.71-7.31,23.3,23.3,0,0,1-1.66-8.74,24.9,24.9,0,0,1,1.61-9,21.83,21.83,0,0,1,4.68-7.39,22.15,22.15,0,0,1,7.43-5.06,24.8,24.8,0,0,1,9.81-1.87,24.21,24.21,0,0,1,9.72,1.87,22.52,22.52,0,0,1,7.31,5,21.19,21.19,0,0,1,4.58,7.31,24.25,24.25,0,0,1,1.58,8.66c0,.74,0,1.45,0,2.12a9,9,0,0,1-.21,1.7h-34.4a13.11,13.11,0,0,0,1.28,4.67,11.42,11.42,0,0,0,6.28,5.7,12,12,0,0,0,4.25.76,13.06,13.06,0,0,0,6.41-1.66,8.77,8.77,0,0,0,4.12-4.37l9.77,2.72a19.86,19.86,0,0,1-7.86,8.36A24.35,24.35,0,0,1,684,327.64Zm11.55-26.84a11.8,11.8,0,0,0-3.69-8,11.61,11.61,0,0,0-15.76,0,11.73,11.73,0,0,0-2.5,3.48,12.24,12.24,0,0,0-1.15,4.5Z" transform="translate(-412.22 -252.06)"/><path class="cls-1" d="M737.78,292.14a22.4,22.4,0,0,0-9.26,2,11.65,11.65,0,0,0-5.86,5.73v26.92H711.28v-44.5h10.45v9.51a20,20,0,0,1,2.8-4.12A21.21,21.21,0,0,1,728,284.5a16.11,16.11,0,0,1,3.78-2.08,10.47,10.47,0,0,1,3.69-.73h1.41a4.33,4.33,0,0,1,.89.09Z" transform="translate(-412.22 -252.06)"/><path class="cls-1" d="M483.88,291.63a8.86,8.86,0,0,1-8.38-5v40.13h11.38V291.21A10.77,10.77,0,0,1,483.88,291.63Z" transform="translate(-412.22 -252.06)"/><circle class="cls-2" cx="534.26" cy="270.84" r="10.66" transform="translate(-466.24 131.57) rotate(-37.74)"/><circle class="cls-2" cx="91.65" cy="14.55" r="8.15"/><circle class="cls-2" cx="144.76" cy="52.33" r="23.26"/><path class="cls-2" d="M475.5,282.31a5.69,5.69,0,1,1,5.67,5.67A5.43,5.43,0,0,1,475.5,282.31Z" transform="translate(-412.22 -252.06)"/><circle class="cls-3" cx="144.76" cy="52.33" r="13.18"/><path class="cls-1" d="M428.19,340.7h7.17c5.38,0,8.95,3.59,8.95,9.14s-3.47,9.58-9.09,9.58h-7Zm3.51,15.85H435c3.87,0,5.63-2.84,5.63-6.68,0-3.28-1.63-6.3-5.61-6.3H431.7Z" transform="translate(-412.22 -252.06)"/><path class="cls-1" d="M462.86,340.7v18.72h-3.51V340.7Z" transform="translate(-412.22 -252.06)"/><path class="cls-1" d="M482.1,354.65l-1.65,4.77H477l6.46-18.72h4.38l6.74,18.72h-3.7l-1.72-4.77Zm6.26-2.91c-1.49-4.28-2.38-6.83-2.81-8.43h0c-.46,1.76-1.45,4.77-2.64,8.43Z" transform="translate(-412.22 -252.06)"/><path class="cls-1" d="M524.24,359.42h-2.6a9.67,9.67,0,0,1-.29-2.08c-1,1.37-2.71,2.37-5.58,2.37-5.42,0-8.4-4.1-8.4-9.43,0-5.62,3.21-9.85,9-9.85,4.66,0,7.46,2.6,7.94,5.84h-3.51c-.47-1.54-1.64-3-4.48-3-4,0-5.33,3.3-5.33,6.89,0,3.44,1.42,6.76,5.31,6.76,3.71,0,4.48-2.54,4.48-4.72V352h-4.5v-2.91h7.94Z" transform="translate(-412.22 -252.06)"/><path class="cls-1" d="M540,359.42V340.7h4.42c2.46,4.27,7.3,12.44,8.22,14.47h.05c-.2-2.1-.2-5.25-.2-8.32V340.7h3.22v18.72h-4.18c-2.17-3.8-7.41-12.95-8.42-15.09h0c.14,1.8.17,5.42.17,8.78v6.31Z" transform="translate(-412.22 -252.06)"/><path class="cls-1" d="M588.65,350c0,5.19-3,9.71-9.06,9.71-5.75,0-8.82-4.27-8.82-9.63s3.3-9.63,9.07-9.63C585.24,340.43,588.65,344.31,588.65,350Zm-14.24,0c0,3.79,1.76,6.82,5.32,6.82,3.85,0,5.28-3.21,5.28-6.77s-1.62-6.71-5.32-6.71S574.41,346.22,574.41,350Z" transform="translate(-412.22 -252.06)"/><path class="cls-1" d="M605.8,354c.45,2,1.86,3,4.22,3s3.42-1,3.42-2.54-.91-2.44-4.3-3.24c-4.86-1.15-6.21-2.89-6.21-5.45,0-3.09,2.31-5.33,6.65-5.33,4.79,0,6.72,2.64,7,5.28H613c-.24-1.32-1-2.61-3.54-2.61-1.86,0-3,.79-3,2.28s.88,2,4,2.77c5.4,1.29,6.51,3.33,6.51,5.89,0,3.28-2.47,5.63-7.29,5.63s-7.07-2.42-7.5-5.64Z" transform="translate(-412.22 -252.06)"/><path class="cls-1" d="M635.64,343.61h-5.81V340.7H645v2.91h-5.8v15.81h-3.51Z" transform="translate(-412.22 -252.06)"/><path class="cls-1" d="M662.4,340.7v18.72h-3.5V340.7Z" transform="translate(-412.22 -252.06)"/><path class="cls-1" d="M693.9,353.81c-.78,3.38-3.32,5.86-7.85,5.86-5.82,0-8.63-4.21-8.63-9.52,0-5.12,2.87-9.72,8.79-9.72,4.79,0,7.19,2.79,7.68,5.92h-3.51a4,4,0,0,0-4.29-3.12c-3.61,0-5,3.26-5,6.79,0,3.34,1.28,6.86,5.14,6.86a4.09,4.09,0,0,0,4.17-3.07Z" transform="translate(-412.22 -252.06)"/><path class="cls-1" d="M711.42,354c.45,2,1.86,3,4.22,3s3.42-1,3.42-2.54-.91-2.44-4.3-3.24c-4.86-1.15-6.21-2.89-6.21-5.45,0-3.09,2.31-5.33,6.65-5.33,4.79,0,6.72,2.64,7,5.28h-3.55c-.24-1.32-1-2.61-3.54-2.61-1.86,0-3,.79-3,2.28s.88,2,4,2.77c5.4,1.29,6.51,3.33,6.51,5.89,0,3.28-2.47,5.63-7.29,5.63s-7.07-2.42-7.5-5.64Z" transform="translate(-412.22 -252.06)"/><path class="cls-1" d="M459.35,374.39h2v7.41c1.12-1.17,4.95-5,7.34-7.41h2.49l-6.49,6.37,6.81,8.72h-2.43l-5.79-7.43-1.93,1.75v5.68h-2Z" transform="translate(-412.22 -252.06)"/><path class="cls-1" d="M473.45,381.26c0-1,0-1.92,0-2.78h1.85c.05.33.08,1.49.07,1.81a3.47,3.47,0,0,1,3.46-2.06c2.07,0,3.68,1.26,3.68,4.18v7.07h-1.9v-6.83c0-1.66-.65-2.78-2.33-2.78-2.07,0-2.91,1.58-2.91,3.79v5.82h-1.9Z" transform="translate(-412.22 -252.06)"/><path class="cls-1" d="M495.61,384c0,3.17-1.82,5.78-5.18,5.78-3.15,0-5.06-2.43-5.06-5.74s1.87-5.77,5.18-5.77C493.6,378.23,495.61,380.51,495.61,384Zm-8.28,0c0,2.42,1.2,4.18,3.18,4.18s3.14-1.67,3.14-4.17-1.13-4.18-3.19-4.18S487.33,381.47,487.33,384Z" transform="translate(-412.22 -252.06)"/><path class="cls-1" d="M499.32,378.48c1.37,5.16,2.15,8.11,2.34,9.24h0c.2-1,1-3.76,2.53-9.24h1.87c1.71,6.23,2.23,8,2.41,9h0c.27-1.18.71-2.83,2.43-9h1.93l-3.39,11h-2.06c-1.07-4-2.12-7.72-2.36-8.91h0c-.2,1.2-1.18,4.55-2.42,8.91H500.5l-3.19-11Z" transform="translate(-412.22 -252.06)"/><path class="cls-1" d="M522,378.48c1.78,5.27,2.76,8.19,3.05,9.31h0c.36-1.25,1.14-3.76,2.94-9.31H530L526,390c-1.12,3.22-2,4-4.2,4a10.29,10.29,0,0,1-1.18-.07V392.3a8.69,8.69,0,0,0,.91.06c1.39,0,1.92-.62,2.57-2.45L520,378.48Z" transform="translate(-412.22 -252.06)"/><path class="cls-1" d="M541.73,384c0,3.17-1.82,5.78-5.18,5.78-3.15,0-5.06-2.43-5.06-5.74s1.87-5.77,5.18-5.77C539.73,378.23,541.73,380.51,541.73,384Zm-8.28,0c0,2.42,1.2,4.18,3.18,4.18s3.14-1.67,3.14-4.17-1.12-4.18-3.19-4.18S533.45,381.47,533.45,384Z" transform="translate(-412.22 -252.06)"/><path class="cls-1" d="M553.46,386.28c0,1.07,0,2.55,0,3.2h-1.85c0-.29-.06-1-.07-1.64a3.28,3.28,0,0,1-3.33,1.9c-1.86,0-3.63-.92-3.63-4v-7.24h1.88v6.83c0,1.45.45,2.78,2.28,2.78,2,0,2.8-1.12,2.8-3.87v-5.74h1.9Z" transform="translate(-412.22 -252.06)"/><path class="cls-1" d="M557.14,381.47c0-1.53,0-2.4,0-3H559c0,.31.06,1.18.06,2.25a3.88,3.88,0,0,1,3.71-2.5v1.89c-2.26.07-3.71,1.24-3.71,4v5.34h-1.9Z" transform="translate(-412.22 -252.06)"/><path class="cls-1" d="M573,373.56v6.55a3.67,3.67,0,0,1,3.43-1.88c1.76,0,3.7,1,3.7,4.23v7h-1.89v-6.7c0-1.87-.79-2.91-2.39-2.91-2,0-2.85,1.31-2.85,3.6v6h-1.9V373.56Z" transform="translate(-412.22 -252.06)"/><path class="cls-1" d="M585,384.33c0,2.24,1.14,3.83,3,3.83a2.53,2.53,0,0,0,2.65-1.7h1.92a4.48,4.48,0,0,1-4.63,3.28c-3.46,0-4.87-2.81-4.87-5.64,0-3.27,1.65-5.87,5-5.87,3.55,0,4.71,2.84,4.71,5.19a8.92,8.92,0,0,1,0,.91Zm5.86-1.34c0-1.81-.93-3.26-2.81-3.26s-2.79,1.34-3,3.26Z" transform="translate(-412.22 -252.06)"/><path class="cls-1" d="M603.8,387.09a17.71,17.71,0,0,0,.15,2.39h-1.81A5.41,5.41,0,0,1,602,388c-.39.74-1.26,1.7-3.4,1.7-2.59,0-3.7-1.68-3.7-3.36,0-2.45,1.93-3.57,5.2-3.57h1.87v-.94c0-1-.31-2.16-2.36-2.16-1.84,0-2.15.92-2.35,1.77h-1.84c.15-1.51,1.08-3.26,4.25-3.25,2.68,0,4.17,1.1,4.17,3.6Zm-1.85-3h-1.78c-2.19,0-3.37.61-3.37,2.16a1.93,1.93,0,0,0,2.14,2c2.65,0,3-1.78,3-3.78Z" transform="translate(-412.22 -252.06)"/><path class="cls-1" d="M607.51,389.48V373.56h1.9v15.92Z" transform="translate(-412.22 -252.06)"/><path class="cls-1" d="M611.78,378.48h1.9v-3.24h1.9v3.24H618V380h-2.43v6.45c0,1.07.26,1.61,1.26,1.61a4.09,4.09,0,0,0,1-.09v1.43a5,5,0,0,1-1.65.21c-1.71,0-2.47-.89-2.47-2.72V380h-1.9Z" transform="translate(-412.22 -252.06)"/><path class="cls-1" d="M622.36,373.56v6.55a3.67,3.67,0,0,1,3.43-1.88c1.76,0,3.7,1,3.7,4.23v7H627.6v-6.7c0-1.87-.79-2.91-2.39-2.91-2,0-2.85,1.31-2.85,3.6v6h-1.9V373.56Z" transform="translate(-412.22 -252.06)"/><path class="cls-1" d="M639.08,373.56H641v6.49a3.64,3.64,0,0,1,3.51-1.82c2.76,0,4.5,2.27,4.5,5.53s-1.67,6-4.79,6A3.2,3.2,0,0,1,641,388a12.45,12.45,0,0,1-.08,1.45h-1.83c0-1.22,0-2.46,0-3.69Zm8,10.24c0-2.38-1.09-4-3-4-2.34,0-3.16,1.56-3.16,4.18,0,2.29.73,4.12,3.06,4.12C645.9,388.14,647,386.48,647,383.8Z" transform="translate(-412.22 -252.06)"/><path class="cls-1" d="M653.17,384.33c0,2.24,1.14,3.83,3,3.83a2.54,2.54,0,0,0,2.66-1.7h1.91a4.46,4.46,0,0,1-4.62,3.28c-3.46,0-4.87-2.81-4.87-5.64,0-3.27,1.64-5.87,5-5.87,3.55,0,4.71,2.84,4.71,5.19a8.92,8.92,0,0,1,0,.91ZM659,383c0-1.81-.93-3.26-2.81-3.26s-2.79,1.34-3,3.26Z" transform="translate(-412.22 -252.06)"/><path class="cls-1" d="M662.5,378.48h1.9v-3.24h1.9v3.24h2.43V380H666.3v6.45c0,1.07.26,1.61,1.26,1.61a4.14,4.14,0,0,0,1-.09v1.43a5,5,0,0,1-1.65.21c-1.71,0-2.47-.89-2.47-2.72V380h-1.9Z" transform="translate(-412.22 -252.06)"/><path class="cls-1" d="M669.53,378.48h1.9v-3.24h1.9v3.24h2.42V380h-2.42v6.45c0,1.07.26,1.61,1.25,1.61a4.09,4.09,0,0,0,1-.09v1.43a5,5,0,0,1-1.64.21c-1.71,0-2.47-.89-2.47-2.72V380h-1.9Z" transform="translate(-412.22 -252.06)"/><path class="cls-1" d="M679.27,384.33c0,2.24,1.14,3.83,3,3.83a2.55,2.55,0,0,0,2.66-1.7h1.91a4.47,4.47,0,0,1-4.63,3.28c-3.46,0-4.87-2.81-4.87-5.64,0-3.27,1.65-5.87,5-5.87,3.55,0,4.71,2.84,4.71,5.19,0,.33,0,.61,0,.91Zm5.86-1.34c0-1.81-.93-3.26-2.81-3.26s-2.79,1.34-3,3.26Z" transform="translate(-412.22 -252.06)"/><path class="cls-1" d="M689.93,381.47c0-1.53,0-2.4,0-3h1.86c0,.31.06,1.18.06,2.25a3.88,3.88,0,0,1,3.71-2.5v1.89c-2.26.07-3.71,1.24-3.71,4v5.34h-1.9Z" transform="translate(-412.22 -252.06)"/><circle class="cls-4" cx="340.01" cy="13.1" r="12.6"/><text class="cls-5" transform="translate(333.83 20.3)">R</text></svg>